<?xml version="1.0" encoding="utf-8"?>
<!-- Uploaded to: SVG Repo, www.svgrepo.com, Generator: SVG Repo Mixer Tools -->
<svg width="800px" height="800px" viewBox="0 0 1024 1024" class="icon"  version="1.1" xmlns="http://www.w3.org/2000/svg"><path d="M608 156.8c4.8 1.6 6.4 4.8 6.4 9.6l-28.8 108.8c-1.6 4.8-4.8 6.4-9.6 6.4-4.8-1.6-6.4-4.8-6.4-9.6l28.8-108.8c0-4.8 4.8-8 9.6-6.4zM867.2 416c1.6 4.8-1.6 8-6.4 9.6L752 454.4c-4.8 1.6-8-1.6-9.6-6.4-1.6-4.8 1.6-8 6.4-9.6l108.8-28.8c4.8 0 8 3.2 9.6 6.4z m-94.4 356.8c-3.2 3.2-8 3.2-11.2 0l-78.4-78.4c-3.2-3.2-3.2-8 0-11.2 3.2-3.2 8-3.2 11.2 0l78.4 78.4c3.2 3.2 3.2 8 0 11.2zM416 867.2c-4.8-1.6-6.4-4.8-6.4-9.6l28.8-108.8c1.6-4.8 4.8-6.4 9.6-6.4 4.8 1.6 6.4 4.8 6.4 9.6l-28.8 108.8c0 4.8-4.8 8-9.6 6.4zM156.8 608c-1.6-4.8 1.6-8 6.4-9.6l108.8-28.8c4.8-1.6 8 1.6 9.6 6.4 1.6 4.8-1.6 8-6.4 9.6l-108.8 28.8c-4.8 0-8-3.2-9.6-6.4z m94.4-356.8c3.2-3.2 8-3.2 11.2 0l78.4 78.4c3.2 3.2 3.2 8 0 11.2s-8 3.2-11.2 0l-78.4-78.4c-3.2-3.2-3.2-8 0-11.2z" fill="#050D42" /><path d="M355.2 355.2l-57.6 214.4 156.8 156.8 214.4-57.6 57.6-214.4-156.8-156.8-214.4 57.6z m230.4-86.4l169.6 169.6c4.8 4.8 6.4 9.6 4.8 16l-62.4 232c-1.6 4.8-6.4 9.6-11.2 11.2l-232 62.4c-4.8 1.6-11.2 0-16-4.8L268.8 585.6c-4.8-4.8-6.4-9.6-4.8-16l62.4-232c1.6-4.8 6.4-9.6 11.2-11.2l232-62.4c6.4 0 11.2 1.6 16 4.8z" fill="#050D42" /><path d="M561.6 326.4c-25.6-6.4-41.6-33.6-33.6-59.2s33.6-41.6 59.2-33.6c25.6 6.4 41.6 33.6 33.6 59.2-6.4 25.6-33.6 40-59.2 33.6z m136 136c-6.4-25.6 8-51.2 33.6-59.2 25.6-6.4 51.2 8 59.2 33.6 6.4 25.6-8 51.2-33.6 59.2-25.6 6.4-52.8-8-59.2-33.6z m-49.6 185.6c19.2-19.2 49.6-19.2 67.2 0 19.2 19.2 19.2 49.6 0 67.2-19.2 19.2-49.6 19.2-67.2 0-19.2-17.6-19.2-48 0-67.2z m-185.6 49.6c25.6 6.4 41.6 33.6 33.6 59.2-6.4 25.6-33.6 41.6-59.2 33.6-25.6-6.4-41.6-33.6-33.6-59.2 6.4-25.6 33.6-40 59.2-33.6z m-136-136c6.4 25.6-8 51.2-33.6 59.2-25.6 6.4-51.2-8-59.2-33.6-6.4-25.6 8-51.2 33.6-59.2 25.6-6.4 52.8 8 59.2 33.6z m49.6-185.6c-19.2 19.2-49.6 19.2-67.2 0-19.2-19.2-19.2-49.6 0-67.2 19.2-19.2 49.6-19.2 67.2 0s19.2 48 0 67.2z" fill="#2F4BFF" /><path d="M483.014155 620.184198a112 112 0 1 0 57.97169-216.368396 112 112 0 1 0-57.97169 216.368396Z" fill="#2F4BFF" /><path d="M598.4 187.2c-17.6-4.8-27.2-22.4-22.4-38.4 4.8-17.6 22.4-27.2 38.4-22.4 17.6 4.8 27.2 22.4 22.4 38.4s-20.8 27.2-38.4 22.4z m238.4 238.4c-4.8-17.6 4.8-35.2 22.4-38.4 17.6-4.8 35.2 4.8 38.4 22.4 4.8 17.6-4.8 35.2-22.4 38.4-16 4.8-33.6-6.4-38.4-22.4z m-88 323.2c12.8-12.8 32-12.8 44.8 0s12.8 32 0 44.8c-12.8 12.8-32 12.8-44.8 0s-11.2-32 0-44.8z m-323.2 88c17.6 4.8 27.2 22.4 22.4 38.4-4.8 17.6-22.4 27.2-38.4 22.4-17.6-4.8-27.2-22.4-22.4-38.4 3.2-17.6 20.8-27.2 38.4-22.4zM187.2 598.4c4.8 17.6-4.8 35.2-22.4 38.4-17.6 4.8-35.2-4.8-38.4-22.4-4.8-17.6 4.8-35.2 22.4-38.4 16-4.8 33.6 6.4 38.4 22.4z m88-323.2c-12.8 12.8-32 12.8-44.8 0-12.8-12.8-12.8-32 0-44.8 12.8-12.8 32-12.8 44.8 0 11.2 11.2 11.2 32 0 44.8z" fill="#2F4BFF" /></svg>